# xmcd
#
# Track frame offsets: 
#        200
#        63720
#        86202
#        103287
#        129245
#        142130
#        176530
#        186075
#        199370
#        213125
#        232567
#        246055
#        256420
#
# Disc length: 3589 seconds
#
# Revision: 5
# Processed by: cddbd v1.5.2PL0 Copyright (c) Steve Scherf et al.
# Submitted via: ExactAudioCopy v1.0b1
#
DISCID=bd0e030d
DTITLE=Rihm, Wolfgang - Die Eroberung von Mexico (Metzmacher, Philharm
DTITLE=onisches Staatsorch. and Chor der Hamburgischen Staatsoper) - CD 
DTITLE=1
DYEAR=1992
DGENRE=Oper
TTITLE0=DIE VORZEICHEN - Beginn. Melodie einer Landschaft, die das Gew
TTITLE0=itter kommen spürt
TTITLE1=Schatten von Wildpferden (Montezuma)
TTITLE2=Schatten Meteore Blitz (Cortez)
TTITLE3=Der Krieg, den ich führen will (Montezuma)
TTITLE4=Raiz del hombre - 1. Strophe
TTITLE5=BEKENNTNIS - Beginn
TTITLE6=Ich ahme einen Krieger nach (Cortez)
TTITLE7=Seraphim? Neutral? Weiblich? (Cortez)
TTITLE8=Montezuma und Cortez stehen einander gegenüber
TTITLE9=Wir sind eure Wohltäter (Cortez)
TTITLE10=Ist das alles? (Cortez)
TTITLE11=Die Muttergottes-Statue wird neben die Huitzlipochtli-Stat
TTITLE11=ue gestellt
TTITLE12=Raiz del hombre - 2. Strophe
EXTD=
EXTT0=
EXTT1=
EXTT2=
EXTT3=
EXTT4=
EXTT5=
EXTT6=
EXTT7=
EXTT8=
EXTT9=
EXTT10=
EXTT11=
EXTT12=
PLAYORDER=
